<?xml version="1.0" encoding="UTF-8"?><svg xmlns="http://www.w3.org/2000/svg" viewBox="0 0 752.86 351.1"><defs><style>.d{fill:#fff;}.e{fill:#f15a29;}</style></defs><g id="a"/><g id="b"><g id="c"><g><g><path class="e" d="M175.27,334.87c-.16,0-.32-.01-.48-.05l-136.85-26.55c-1.03-.2-1.82-1.02-1.99-2.05-.17-1.03,.32-2.06,1.23-2.58l128.17-73.02c.74-.42,1.64-.44,2.4-.04,.75,.4,1.26,1.15,1.33,2l8.68,99.57c.07,.78-.23,1.55-.82,2.07-.46,.42-1.06,.64-1.67,.64Zm-129.75-30.22l126.97,24.64-8.05-92.38-118.92,67.75Z"/><path class="e" d="M38.42,308.32c-1.05,0-2.02-.66-2.37-1.71L.13,199.38c-.35-1.05,.03-2.2,.93-2.84l76.26-53.62c.99-.7,2.35-.58,3.21,.28l87.83,87.83c.98,.98,.98,2.56,0,3.54s-2.56,.98-3.54,0l-86.34-86.34L5.46,199.56l35.32,105.47c.44,1.31-.27,2.73-1.58,3.16-.26,.09-.53,.13-.79,.13Z"/><path class="e" d="M40.8,301.68c-.49,0-.98-.14-1.41-.44-1.14-.78-1.43-2.33-.66-3.47L206.39,52.16c.78-1.14,2.33-1.44,3.47-.66,1.14,.78,1.43,2.33,.66,3.47L42.86,300.59c-.48,.71-1.27,1.09-2.07,1.09Z"/><path class="e" d="M2.5,201.09c-.16,0-.33-.02-.5-.05-1.35-.27-2.23-1.59-1.96-2.95L21.5,91.88c.18-.89,.83-1.62,1.7-1.89,.87-.27,1.82-.05,2.48,.58l53.34,51.19L212.12,50.93c1.14-.78,2.7-.48,3.47,.66,.78,1.14,.48,2.7-.66,3.47L80.17,147.04c-.98,.67-2.29,.56-3.14-.26L25.5,97.33,4.95,199.08c-.24,1.19-1.28,2-2.45,2Z"/><path class="e" d="M175.26,334.87c-.39,0-.79-.09-1.17-.29-1.22-.65-1.69-2.16-1.04-3.38l126.07-238.3L168.41,232.47c-.94,1.01-2.52,1.06-3.53,.12-1.01-.94-1.06-2.53-.12-3.53L308.25,75.86c.86-.91,2.25-1.05,3.28-.33,1.02,.73,1.34,2.1,.76,3.2l-134.81,254.81c-.45,.85-1.32,1.33-2.21,1.33Z"/><path class="e" d="M166.59,237.34c-.19,0-.38-.02-.58-.07-1.34-.32-2.17-1.67-1.86-3.01L208.41,47.37c.32-1.34,1.66-2.17,3.01-1.86,1.34,.32,2.17,1.67,1.86,3.01l-44.26,186.89c-.27,1.15-1.3,1.92-2.43,1.92Z"/><path class="e" d="M310.08,80.07c-.2,0-.41-.03-.62-.08l-97.76-24.88-.79,4.19c-.25,1.36-1.56,2.25-2.92,2-1.36-.25-2.25-1.56-2-2.92l.84-4.51L92.78,24.84c-1.15-.29-1.94-1.35-1.88-2.54,.05-1.18,.93-2.17,2.11-2.35L218.62,.03c.8-.13,1.62,.14,2.18,.73,.57,.58,.81,1.4,.67,2.2l-8.84,47.22,98.07,24.96c1.34,.34,2.15,1.7,1.81,3.04-.29,1.13-1.3,1.88-2.42,1.88ZM105.77,22.99l102,25.96,8.13-43.42L105.77,22.99Z"/><path class="e" d="M310.07,83.13c-.58,0-1.16-.2-1.63-.6L217.38,4.4c-1.05-.9-1.17-2.48-.27-3.53,.9-1.05,2.48-1.17,3.53-.27l91.06,78.13c1.05,.9,1.17,2.48,.27,3.53-.49,.58-1.19,.87-1.9,.87Z"/><path class="e" d="M170.5,237.34c-1.02,0-1.98-.63-2.35-1.65-.75-2.07-75.09-206.87-77.11-212.42-.47-1.3,.2-2.73,1.5-3.2,1.3-.47,2.73,.2,3.2,1.5,2.02,5.55,76.36,210.36,77.11,212.43,.47,1.3-.2,2.73-1.5,3.2-.28,.1-.57,.15-.85,.15Z"/><path class="e" d="M299.53,292.15s-.08,0-.12,0c-1.38-.07-2.44-1.24-2.37-2.62l10.55-214.13c.07-1.38,1.22-2.46,2.62-2.37,1.38,.07,2.44,1.24,2.37,2.62l-10.55,214.13c-.07,1.34-1.17,2.38-2.5,2.38Z"/><g><circle class="e" cx="299.53" cy="287.1" r="18.72"/><circle class="e" cx="208.46" cy="53.57" r="18.72"/><circle class="e" cx="310.07" cy="77.57" r="18.72"/><circle class="e" cx="78.76" cy="144.97" r="18.72"/><circle class="e" cx="166.59" cy="230.76" r="18.72"/><circle class="e" cx="175.27" cy="332.37" r="18.72"/><circle class="e" cx="38.42" cy="305.82" r="18.72"/></g><path class="e" d="M300,287.56c-.29,0-.58-.05-.87-.16l-141.24-52.25c-1.29-.48-1.96-1.92-1.48-3.21,.48-1.29,1.92-1.95,3.21-1.48l141.24,52.25c1.29,.48,1.96,1.92,1.48,3.21-.37,1.01-1.33,1.63-2.34,1.63Z"/></g><g><path class="d" d="M353.34,156.74h38.49c26.11,0,44.07,14.84,44.07,39.05s-17.96,39.05-44.07,39.05h-38.49v-78.1Zm37.38,57.57c11.05,0,18.63-6.58,18.63-18.52s-7.59-18.52-18.63-18.52h-11.05v37.04h11.05Z"/><path class="d" d="M497.59,221.23h-29.68l-5.24,13.61h-26.78l34.14-78.1h25.88l34.14,78.1h-27.22l-5.24-13.61Zm-7.25-18.97l-7.59-19.64-7.59,19.64h15.17Z"/><path class="d" d="M547.35,177.16h-22.87v-20.42h72.08v20.42h-22.87v57.68h-26.33v-57.68Z"/><path class="d" d="M652.67,221.23h-29.68l-5.24,13.61h-26.78l34.14-78.1h25.88l34.14,78.1h-27.22l-5.24-13.61Zm-7.25-18.97l-7.59-19.64-7.59,19.64h15.17Z"/><path class="d" d="M364.38,268.62h22.09l-15.62,78.1h-22.09l15.62-78.1Z"/><path class="d" d="M476.4,268.62l-15.62,78.1h-18.19l-25.77-42.84-8.59,42.84h-21.65l15.62-78.1h18.19l25.88,42.73,8.48-42.73h21.64Z"/><path class="d" d="M566.32,268.62l-15.62,78.1h-18.19l-25.77-42.84-8.59,42.84h-21.64l15.62-78.1h18.19l25.88,42.73,8.48-42.73h21.64Z"/><path class="d" d="M569.77,313.92c0-27.11,20.08-46.86,48.76-46.86,23.99,0,38.83,14.17,38.83,34.37,0,27.11-20.08,46.86-48.76,46.86-23.99,0-38.83-14.17-38.83-34.36Zm65.27-11.16c0-10.38-6.69-17.4-18.41-17.4-15.29,0-24.54,12.5-24.54,27.22,0,10.38,6.69,17.41,18.41,17.41,15.29,0,24.55-12.5,24.55-27.22Z"/><path class="d" d="M752.86,268.62l-48.98,78.1h-21.76l-17.74-78.1h22.65l11.16,50.77,31.91-50.77h22.76Z"/></g></g></g></g></svg>